<svg width="1122" height="452" xmlns="http://www.w3.org/2000/svg" xmlns:xlink="http://www.w3.org/1999/xlink" xml:space="preserve" overflow="hidden"><defs><clipPath id="clip0"><rect x="79" y="134" width="1122" height="452"/></clipPath></defs><g clip-path="url(#clip0)" transform="translate(-79 -134)"><path d="M911.241 261.915C857.098 176.552 783.963 147.625 690.497 167.747 692.082 180.417 698.214 178.044 702.513 177.3 734.873 173.531 763.61 182.262 792.259 190.386 824.168 199.332 850.359 219.928 873.359 248.303 880.141 256.746 886.483 265.533 892.361 274.628 893.633 276.243 894.261 278.775 896.062 284.039 874.592 284.288 860.157 265.21 838.553 273.474 838.087 275.608 837.161 278.152 836.694 280.286 848.452 286.294 860.482 292.4 872.056 298.916 883.63 305.432 894.741 312.356 906.497 318.365 915.157 322.669 921.95 315.926 924.222 299.474 927.337 278.145 928.255 257.744 929.907 237.034 930.1 234.801 930.205 231.958 929.481 230.543 927.211 227.413 924.386 225.808 921.658 223.088 919.26 227.975 915.855 233.072 914.463 237.748 912.789 244.048 912.852 249.83 911.241 261.915Z" fill="#1B70A6"/><path d="M368.758 458.084C422.903 543.447 496.038 572.375 589.505 552.253 587.919 539.583 581.788 541.956 577.489 542.7 545.129 546.469 516.392 537.737 487.742 529.614 455.833 520.667 429.642 500.071 406.641 471.696 399.859 463.253 393.516 454.467 387.638 445.371 386.367 443.756 385.739 441.224 383.937 435.96 405.407 435.711 419.843 454.789 441.447 446.525 441.913 444.391 442.839 441.847 443.306 439.714 431.548 433.706 419.518 427.6 407.944 421.083 396.371 414.567 385.259 407.643 373.502 401.634 364.842 397.33 358.049 404.073 355.777 420.525 352.662 441.854 351.744 462.255 350.092 482.965 349.899 485.198 349.795 488.041 350.519 489.456 352.788 492.586 355.613 494.191 358.342 496.911 360.739 492.024 364.144 486.927 365.537 482.251 367.214 475.952 367.148 470.169 368.758 458.084Z" fill="#1B70A6"/><text fill="#1B70A6" font-family="Arial,Arial_MSFontService,sans-serif" font-weight="700" font-size="40" transform="matrix(0.9995 0 0 0.9995 604.339 272)">vida<tspan font-size="40" x="-8.88597" y="45.0225">amor</tspan><tspan font-size="40" x="-193.417" y="90.045">crescimento sustentável</tspan><tspan font-size="40" x="-123.359" y="135.067">desenvolvimento</tspan><tspan font-size="40" x="-44.443" y="180.09">emprego</tspan><tspan font-size="40" x="5.55704" y="225.112">fixe</tspan><tspan font-family="Dosis,Dosis_MSFontService,sans-serif" font-size="60" x="277.966" y="261.13">POP</tspan><tspan font-family="Dosis,Dosis_MSFontService,sans-serif" font-size="60" x="377.966" y="261.13">!!!</tspan><tspan font-family="Dosis,Dosis_MSFontService,sans-serif" font-size="60" x="-438.238" y="-39.0195">RECICLAR É</tspan><tspan font-family="Dosis,Dosis_MSFontService,sans-serif" font-size="60" x="-150.238" y="-39.0195">...</tspan></text></g></svg>